<?xml version="1.0" encoding="UTF-8"?>
<svg version="1.1" xmlns="http://www.w3.org/2000/svg" width="1024" height="1024">
<path d="M0 0 C337.92 0 675.84 0 1024 0 C1024 337.92 1024 675.84 1024 1024 C686.08 1024 348.16 1024 0 1024 C0 686.08 0 348.16 0 0 Z " fill="#1E232D" transform="translate(0,0)"/>
<path d="M0 0 C2.21822194 0.00854477 4.43388259 -0.02047027 6.65185547 -0.05200195 C27.22861572 -0.15412234 49.86206294 6.53545075 65.21435547 20.75854492 C73.70259945 29.67886701 77.29694962 36.94898451 77.18701172 49.34448242 C76.67768945 52.71449813 76.30489983 54.22109773 73.71826172 56.44604492 C68.78938982 57.24495548 66.20339044 55.87666715 62.21826172 53.07104492 C53.36905691 46.8918588 44.91287434 46.48753175 34.34716797 47.72338867 C26.83003997 49.31151431 19.70298296 53.28190197 15.00341797 59.39526367 C9.17159117 68.70137027 9.24007152 77.85944519 9.71826172 88.44604492 C5.31604811 84.04383132 5.26212609 78.78361121 5.21826172 72.88354492 C5.21922504 63.34471846 7.42005587 56.40740253 13.76904297 49.07885742 C18.79347477 44.20614026 24.09940249 41.5607346 30.71826172 39.44604492 C31.70826172 39.11604492 32.69826172 38.78604492 33.71826172 38.44604492 C42.16124691 37.75897883 49.64194788 39.04033442 57.71826172 41.44604492 C45.19163149 32.68817164 32.7795912 30.73300886 17.71826172 32.44604492 C6.59527247 35.17454437 -2.62683919 42.23281479 -9.28173828 51.44604492 C-15.2742758 61.86717606 -17.1637006 72.76898175 -14.65673828 84.69604492 C-11.36851455 93.66392782 -8.061237 100.73856765 -0.28173828 106.44604492 C0.19650391 106.94104492 0.67474609 107.43604492 1.16748047 107.94604492 C9.79238606 116.28852287 25.66176737 118.58839918 37.15576172 118.94604492 C52.81348814 118.35394602 65.14006101 113.77761575 78.9230957 106.42358398 C79.90737549 105.89861328 80.89165527 105.37364258 81.90576172 104.83276367 C82.78619141 104.35025146 83.66662109 103.86773926 84.57373047 103.37060547 C85.28142578 103.06550049 85.98912109 102.76039551 86.71826172 102.44604492 C87.37826172 102.77604492 88.03826172 103.10604492 88.71826172 103.44604492 C79.06306915 113.67798572 69.02799722 122.41134131 55.71826172 127.44604492 C54.63029297 127.91139648 53.54232422 128.37674805 52.42138672 128.85620117 C43.58642501 132.20193034 35.40574926 132.91191645 25.96826172 132.94604492 C24.84419922 132.95224854 23.72013672 132.95845215 22.56201172 132.96484375 C6.03652134 132.71633102 -8.04023113 127.34416053 -20.06298828 115.82885742 C-30.33439847 104.79794155 -34.66031984 93.14432965 -34.48876953 78.20385742 C-33.62723908 62.56626699 -26.61195925 50.07958564 -15.28173828 39.44604492 C-11.48465532 36.464954 -7.60917225 33.60976191 -3.28173828 31.44604492 C-9.43476391 31.97898415 -14.93831011 32.96321873 -20.78173828 34.94604492 C-21.55291992 35.20740234 -22.32410156 35.46875977 -23.11865234 35.73803711 C-37.20287951 40.72345194 -49.43914678 48.45618544 -61.28173828 57.44604492 C-61.28173828 49.97349186 -53.61197976 42.05616003 -48.69189453 36.76635742 C-39.00406316 27.43966077 -28.14196916 19.73278855 -15.28173828 15.44604492 C-45.40305061 20.61358383 -72.06400859 36.90864495 -92.09423828 59.88354492 C-107.79875741 77.39542706 -129.94379205 88.8085373 -153.28173828 91.44604492 C-158.27935549 91.70351834 -163.25827438 91.77627932 -168.26171875 91.76171875 C-170.51498325 91.75856835 -172.76691695 91.7820766 -175.02001953 91.80737305 C-188.24623496 91.8644728 -200.82108994 90.11878805 -213.28173828 85.44604492 C-213.28173828 85.11604492 -213.28173828 84.78604492 -213.28173828 84.44604492 C-212.40775391 84.38658691 -212.40775391 84.38658691 -211.51611328 84.32592773 C-170.06595743 81.37684039 -137.19901241 63.51527934 -104.09350586 39.28173828 C-73.56388946 17.16268891 -38.42284697 -0.22442262 0 0 Z " fill="#4DD4EB" transform="translate(303.28173828125,431.553955078125)"/>
<path d="M0 0 C2.91691525 -0.05401695 5.83282724 -0.09368066 8.75 -0.125 C9.575 -0.14175781 10.4 -0.15851563 11.25 -0.17578125 C12.04921875 -0.18222656 12.8484375 -0.18867188 13.671875 -0.1953125 C14.4050293 -0.20578613 15.13818359 -0.21625977 15.89355469 -0.22705078 C18.4773022 0.05144773 19.91646707 0.41549307 22 2 C23.35491348 6.54448447 22.87795994 10.61121328 22.2578125 15.26171875 C22.16998505 15.93419144 22.08215759 16.60666412 21.9916687 17.29951477 C21.80567617 18.71104658 21.61551744 20.12203512 21.42138672 21.5324707 C21.12459495 23.69044513 20.84050929 25.84980227 20.55859375 28.00976562 C19.16268123 38.5119563 19.16268123 38.5119563 18 42 C17.701273 44.8955815 17.43599734 47.78761986 17.1875 50.6875 C16.38867507 59.31449537 15.10132238 67.78561233 13.61108398 76.31713867 C12.11275886 85.0194054 10.89769802 93.74604058 9.75 102.5 C9.61685394 103.51522736 9.61685394 103.51522736 9.48101807 104.55096436 C8.98190572 108.36663114 8.49014028 112.18316296 8 116 C1.73 116 -4.54 116 -11 116 C-11.66 113.69 -12.32 111.38 -13 109 C-13.54527344 109.27714844 -14.09054687 109.55429687 -14.65234375 109.83984375 C-17.26730788 111.13209724 -19.90835263 112.35278657 -22.5625 113.5625 C-23.98755859 114.21412109 -23.98755859 114.21412109 -25.44140625 114.87890625 C-33.15860763 118.26033647 -42.80889969 118.01565229 -50.9375 115.87890625 C-57.40082142 113.12464996 -61.50527849 108.08233523 -64.30859375 101.796875 C-66.78061328 95.37241746 -66.13956218 88.78108017 -66 82 C-65.98324219 80.83210938 -65.96648438 79.66421875 -65.94921875 78.4609375 C-65.46228833 66.3572384 -62.81725975 52.88225184 -54 44 C-53.46503906 43.45085937 -52.93007813 42.90171875 -52.37890625 42.3359375 C-44.25123347 34.7150711 -35.03903029 32.81262279 -24.25 32.875 C-23.45029785 32.87693359 -22.6505957 32.87886719 -21.82666016 32.88085938 C-16.48542007 32.92002919 -11.28994885 33.21630387 -6 34 C-3.622165 22.71793181 -1.72991348 11.39779874 0 0 Z " fill="#9259DF" transform="translate(610,400)"/>
<path d="M0 0 C7.92 0 15.84 0 24 0 C23.36650105 6.33498946 22.69866504 12.62660573 21.84375 18.9296875 C21.7365564 19.72730499 21.62936279 20.52492249 21.5189209 21.34671021 C21.2945631 23.01218095 21.06933714 24.67753497 20.84326172 26.34277344 C20.49802286 28.88958529 20.15707329 31.43694804 19.81640625 33.984375 C19.59661129 35.61201391 19.37656814 37.23961933 19.15625 38.8671875 C19.05517944 39.62450165 18.95410889 40.3818158 18.84997559 41.16207886 C18.39358483 44.50101502 17.84513486 47.7395293 17 51 C16.75594176 54.41681535 16.57034455 57.03198109 17.97265625 60.19140625 C21.15351467 63.02905066 24.64378345 62.53883809 28.6875 62.4375 C29.46544922 62.44458984 30.24339844 62.45167969 31.04492188 62.45898438 C36.67674622 62.39792206 40.79310698 61.09052042 46 59 C47.32 59 48.64 59 50 59 C49.94199219 57.13021484 49.94199219 57.13021484 49.8828125 55.22265625 C49.88504803 49.50082483 50.85432653 44.05300264 51.875 38.4375 C53.32591587 30.15026968 54.60012264 21.89886999 55.5078125 13.53515625 C56.09527425 9.31568895 57.07584021 5.15871907 58 1 C65.59 1 73.18 1 81 1 C81 7.21764817 80.96920378 12.58745045 80.1875 18.625 C79.96126953 20.43871094 79.96126953 20.43871094 79.73046875 22.2890625 C79.15093474 26.33048864 78.36059148 30.32151649 77.578125 34.328125 C76.42133191 40.32515831 75.50475565 46.32183586 74.75390625 52.3828125 C74.60528389 53.57839279 74.60528389 53.57839279 74.45365906 54.79812622 C74.05216535 58.06029583 73.65671856 61.32306885 73.27319336 64.58740234 C69.29900453 98.14944366 69.29900453 98.14944366 55.97265625 108.72265625 C46.09694056 115.11742661 34.42408332 116.36151073 22.9375 116.25 C21.44391968 116.24202393 21.44391968 116.24202393 19.92016602 116.23388672 C9.19150711 116.09798292 -1.8438835 115.72443101 -12 112 C-12.09507063 105.56688704 -12.15316726 99.34241995 -11 93 C-10.17822266 93.18175781 -10.17822266 93.18175781 -9.33984375 93.3671875 C6.84676613 96.78874731 25.48774133 100.67640407 41 93 C45.6069644 88.83495065 46.10546703 81.84977484 47 76 C46.09121094 76.39832031 46.09121094 76.39832031 45.1640625 76.8046875 C35.63794146 80.82031391 27.16930331 82.19127359 16.875 82.375 C16.02760254 82.40110352 15.18020508 82.42720703 14.30712891 82.45410156 C6.87116758 82.47441443 1.82925176 80.33720798 -3.875 75.625 C-9.04430945 69.23938245 -8.51777713 61.80648591 -8 54 C-7.56309061 50.39393398 -6.96405412 46.81718647 -6.35327148 43.23706055 C-4.87766509 34.55947436 -3.74613608 25.8412472 -2.61413574 17.11380005 C-2.36624919 15.20332831 -2.11674477 13.29306671 -1.8671875 11.3828125 C-1.72394043 10.27309082 -1.58069336 9.16336914 -1.43310547 8.02001953 C-1.04758932 5.33183757 -0.53258964 2.66294822 0 0 Z " fill="#42E0DA" transform="translate(842,434)"/>
<path d="M0 0 C0.9075 -0.00773437 1.815 -0.01546875 2.75 -0.0234375 C8.37987559 -0.00721307 13.22363317 0.65615405 18.625 2.25 C18.8114444 6.53822121 18.49800563 10.29791798 17.6171875 14.5078125 C17.34044189 15.84416748 17.34044189 15.84416748 17.05810547 17.20751953 C16.91518066 17.88153809 16.77225586 18.55555664 16.625 19.25 C16.01503174 19.2593457 15.40506348 19.26869141 14.77661133 19.27832031 C11.99610513 19.33221326 9.21724738 19.41582069 6.4375 19.5 C5.47779297 19.51417969 4.51808594 19.52835937 3.52929688 19.54296875 C-0.84646289 19.69437912 -3.65434765 19.82197067 -7.47265625 22.08984375 C-11.4826659 26.6433044 -11.54125938 32.41381569 -12.375 38.25 C-4.785 38.25 2.805 38.25 10.625 38.25 C10.16552915 44.68259184 9.68570024 50.88579859 8.625 57.25 C0.705 57.25 -7.215 57.25 -15.375 57.25 C-15.705 60.22 -16.035 63.19 -16.375 66.25 C-17.81882621 78.38983805 -19.51009034 90.49021069 -21.4375 102.5625 C-21.59968018 103.58085937 -21.76186035 104.59921875 -21.92895508 105.6484375 C-22.39479989 108.5186655 -22.87869397 111.38489189 -23.375 114.25 C-23.52839844 115.15049072 -23.68179688 116.05098145 -23.83984375 116.97875977 C-24.7396415 121.90137257 -25.91234085 126.0870334 -28.25 130.5625 C-28.98863281 132.01076172 -28.98863281 132.01076172 -29.7421875 133.48828125 C-34.58072922 141.67213053 -40.94081202 145.11202573 -49.85546875 148.07421875 C-57.16330326 149.80018971 -64.91146257 149.66410595 -72.375 149.25 C-73.375 148.25 -73.375 148.25 -73.5078125 145.484375 C-73.50523437 144.33453125 -73.50265625 143.1846875 -73.5 142 C-73.50257813 140.86046875 -73.50515625 139.7209375 -73.5078125 138.546875 C-73.39109587 135.64955624 -73.04145245 133.06391036 -72.375 130.25 C-71.19744141 130.19392578 -71.19744141 130.19392578 -69.99609375 130.13671875 C-63.1698166 129.70955294 -57.36778815 129.32062086 -51.78515625 125.02734375 C-48.44450033 120.81682175 -48.31308019 114.44022747 -47.375 109.25 C-47.18139893 108.1973999 -47.18139893 108.1973999 -46.98388672 107.12353516 C-45.33856784 98.07733952 -44.078958 89.04611462 -43.14868164 79.89990234 C-42.33877087 72.26263759 -40.91178416 64.76999715 -39.375 57.25 C-43.665 57.25 -47.955 57.25 -52.375 57.25 C-51.91552915 50.81740816 -51.43570024 44.61420141 -50.375 38.25 C-45.755 38.25 -41.135 38.25 -36.375 38.25 C-36.26542969 37.26 -36.15585937 36.27 -36.04296875 35.25 C-34.60379238 22.92802793 -32.7165526 14.98831581 -23.375 6.25 C-16.09292633 0.84176537 -8.77988379 -0.0741962 0 0 Z " fill="#64BAE1" transform="translate(774.375,397.75)"/>
<path d="M0 0 C0.97396729 0.00418945 1.94793457 0.00837891 2.95141602 0.01269531 C9.72402625 0.11930594 15.89138302 0.62739129 22.1875 3.3125 C22.868125 3.5909375 23.54875 3.869375 24.25 4.15625 C27.87882632 5.91018272 30.71470402 8.22203259 32.51953125 11.87109375 C34.65109572 19.66189957 34.65217185 28.79892418 30.6875 35.9375 C23.54952366 45.80178675 12.92149621 50.06982103 1.11328125 52.06640625 C-6.50614116 53.1768197 -14.11384252 53.60609287 -21.8125 53.3125 C-20.90817996 58.80244226 -20.90817996 58.80244226 -17.9375 63.25 C-8.74894334 67.84427833 4.21076362 65.38385362 13.93359375 63.82421875 C18.33995023 63.13126233 22.74630766 62.71624476 27.1875 62.3125 C26.5275 68.2525 25.8675 74.1925 25.1875 80.3125 C6.48060552 84.4897677 -16.37486481 88.79868121 -34.1875 79.5625 C-39.75174895 74.79314376 -44.41494886 69.74653256 -45.8125 62.3125 C-47.05363643 45.58670901 -45.46303092 26.42257457 -34.41015625 13.0234375 C-24.83443973 2.76875819 -13.69643711 -0.07995173 0 0 Z " fill="#8870DE" transform="translate(680.8125,432.6875)"/>
<path d="M0 0 C30.36 0 60.72 0 92 0 C92 7 92 7 89 22 C78.11 22 67.22 22 56 22 C55.67 26.29 55.34 30.58 55 35 C54.41655845 38.84756049 53.798935 42.6693624 53.125 46.5 C51.25395655 57.55787533 49.99934751 68.62104043 48.95166016 79.78125 C48.7841626 81.54275391 48.7841626 81.54275391 48.61328125 83.33984375 C48.47079956 84.90786743 48.47079956 84.90786743 48.32543945 86.50756836 C48 89 48 89 47 91 C46.72466612 92.54352749 46.49130544 94.09467993 46.28125 95.6484375 C46.15363281 96.57140625 46.02601563 97.494375 45.89453125 98.4453125 C45.76433594 99.41210938 45.63414062 100.37890625 45.5 101.375 C45.24153879 103.27891231 44.98119206 105.18256984 44.71875 107.0859375 C44.60466797 107.9320459 44.49058594 108.7781543 44.37304688 109.64990234 C44.03353496 111.78873855 43.52523881 113.89904477 43 116 C34.75 116 26.5 116 18 116 C19.12698413 102.47619048 19.12698413 102.47619048 19.8671875 96.8984375 C20.02920654 95.67495605 20.19122559 94.45147461 20.3581543 93.19091797 C20.52871338 91.93166504 20.69927246 90.67241211 20.875 89.375 C20.9627066 88.71969299 21.05041321 88.06438599 21.14077759 87.38922119 C22.28984975 78.80936057 23.56293586 70.26334164 25.0637207 61.73779297 C25.93133751 56.71831233 26.41116057 51.74229443 26.75390625 46.6640625 C27.07452417 43.1932463 27.7843453 39.86221929 28.52734375 36.4609375 C29.19147309 33.00307398 29.48194546 29.53898916 29.75390625 26.03125 C30 24 30 24 31 22 C19.78 22 8.56 22 -3 22 C-2 11 -2 11 0 0 Z " fill="#9F49E3" transform="translate(417,400)"/>
<path d="M0 0 C2.66792313 1.56048334 5.14367303 3.27431264 7.65234375 5.08203125 C8.97978311 6.02440405 10.30796851 6.96572646 11.63671875 7.90625 C13.8483383 9.47397716 16.0594269 11.04238036 18.26757812 12.61499023 C51.23208641 35.98182229 90.23043883 44.38137239 130.23828125 37.79296875 C137.08001507 36.36825988 143.87616234 34.79059107 150.65234375 33.08203125 C149.21418112 35.95835651 147.50369038 36.04857312 144.5 37.10546875 C143.42218262 37.48501709 142.34436523 37.86456543 141.23388672 38.25561523 C139.49196045 38.85031616 139.49196045 38.85031616 137.71484375 39.45703125 C136.53293457 39.86187744 135.35102539 40.26672363 134.13330078 40.68383789 C124.73087059 43.84076035 115.42063653 46.39168979 105.65234375 48.08203125 C104.45222656 48.30503906 103.25210938 48.52804687 102.015625 48.7578125 C63.31232036 54.80391854 21.31531357 47.11349536 -13.34765625 29.08203125 C-6.1836026 33.84119057 1.03715656 37.91130651 8.90234375 41.39453125 C9.9994165 41.88179687 9.9994165 41.88179687 11.11865234 42.37890625 C16.20557843 44.58137503 21.36955684 46.40728531 26.65234375 48.08203125 C26.65234375 48.41203125 26.65234375 48.74203125 26.65234375 49.08203125 C24.86013799 48.96501438 23.0685929 48.83787817 21.27734375 48.70703125 C19.78074219 48.60261719 19.78074219 48.60261719 18.25390625 48.49609375 C-5.97143733 45.71096748 -29.24694322 35.83923629 -50.34765625 24.08203125 C-51.31574219 23.54578125 -52.28382813 23.00953125 -53.28125 22.45703125 C-58.37522859 19.51272835 -63.17389158 16.16633559 -67.97265625 12.76953125 C-68.60212158 12.32416016 -69.23158691 11.87878906 -69.88012695 11.41992188 C-71.38914377 10.33435259 -72.87130866 9.21162862 -74.34765625 8.08203125 C-74.34765625 7.75203125 -74.34765625 7.42203125 -74.34765625 7.08203125 C-73.54996826 7.04762939 -72.75228027 7.01322754 -71.93041992 6.9777832 C-51.97734018 6.05766192 -17.45212046 -6.82404045 0 0 Z " fill="#B876F4" transform="translate(197.34765625,534.91796875)"/>
<path d="M0 0 C54.15067509 -1.54965977 123.69361666 3.37471764 172 29 C172 29.33 172 29.66 172 30 C137.91950659 30.21987737 103.85600249 30.18229771 69.78559875 29.24684906 C67.57349352 29.18779349 65.36131712 29.13388004 63.14904785 29.08135986 C58.99589114 28.98161355 54.84381027 28.85779599 50.69140625 28.73046875 C48.87199272 28.68805809 48.87199272 28.68805809 47.01582336 28.64479065 C29.15227292 28.02465106 17.65182333 22.16711146 5.3125 9.6484375 C0 3.56418919 0 3.56418919 0 0 Z " fill="#A25AE1" transform="translate(75,397)"/>
<path d="M0 0 C3.27066566 -0.08706892 6.54103365 -0.14041241 9.8125 -0.1875 C11.2056543 -0.22520508 11.2056543 -0.22520508 12.62695312 -0.26367188 C13.51962891 -0.27333984 14.41230469 -0.28300781 15.33203125 -0.29296875 C16.56530151 -0.31653442 16.56530151 -0.31653442 17.82348633 -0.34057617 C20 0 20 0 21.77099609 1.26464844 C26.24651104 7.58406843 22.05335493 21.32436697 21.02856445 28.62866211 C20.69176528 31.03206294 20.36552142 33.43670877 20.04101562 35.84179688 C19.02167789 43.30050348 17.89948061 50.71902514 16.52734375 58.12109375 C14.46582072 69.34143921 13.2281269 80.67708826 11.875 92 C11.35646776 96.33394422 10.83226987 100.66714936 10.3046875 105 C10.18801727 105.9914502 10.07134705 106.98290039 9.95114136 108.00439453 C9.84077545 108.91044434 9.73040955 109.81649414 9.61669922 110.75 C9.52137909 111.54921875 9.42605896 112.3484375 9.32785034 113.171875 C9 115 9 115 8 116 C6.21928754 116.08726223 4.4351686 116.10699041 2.65234375 116.09765625 C1.57275391 116.09443359 0.49316406 116.09121094 -0.61914062 116.08789062 C-1.75544922 116.07951172 -2.89175781 116.07113281 -4.0625 116.0625 C-5.20267578 116.05798828 -6.34285156 116.05347656 -7.51757812 116.04882812 C-10.34510351 116.03699747 -13.1725264 116.0205141 -16 116 C-14.49074194 103.61049571 -12.9274343 91.23471967 -11.12792969 78.88378906 C-10.03951986 71.37859228 -9.05031526 63.86216898 -8.08984375 56.33959961 C-6.36688042 42.909541 -4.34928718 29.51991084 -2.375 16.125 C-2.14320183 14.55078527 -1.91143085 12.97656655 -1.6796875 11.40234375 C-1.12010381 7.60151646 -0.56015665 3.80074289 0 0 Z " fill="#5DD2DF" transform="translate(805,400)"/>
<path d="M0 0 C0 10.89 0 21.78 0 33 C-9 36 -9 36 -21 38 C-21 29.09 -21 20.18 -21 11 C-21.66 11 -22.32 11 -23 11 C-23 20.24 -23 29.48 -23 39 C-30.37181151 40.68498549 -36.41037306 42 -44 42 C-44 34.08 -44 26.16 -44 18 C-44.66 18 -45.32 18 -46 18 C-46 26.25 -46 34.5 -46 43 C-52.23543298 45.07847766 -58.49696498 46.64310406 -64.88549805 48.14160156 C-66.93011466 48.6232602 -68.9718153 49.11616581 -71.01367188 49.609375 C-72.33056481 49.91996853 -73.64761722 50.22988681 -74.96484375 50.5390625 C-76.73782837 50.95986084 -76.73782837 50.95986084 -78.54663086 51.38916016 C-82 52 -82 52 -89 52 C-89 43.75 -89 35.5 -89 27 C-76.13288024 22.68328885 -63.27650377 18.43902797 -50.2578125 14.6015625 C-41.49612717 12.01034775 -32.84406243 9.31491037 -24.265625 6.1640625 C-19.76852461 4.56102911 -15.21557953 3.1721349 -10.64453125 1.796875 C-6.63226887 0.58786241 -4.36749095 0 0 0 Z " fill="#A654E1" transform="translate(290,342)"/>
<path d="M0 0 C7.59 0 15.18 0 23 0 C22.51572291 12.10692713 20.96073801 23.89061475 19.1875 35.87109375 C17.79144039 45.31942577 16.52085373 54.78414609 15.25 64.25 C15.02510118 65.92147295 14.80016712 67.59294117 14.57519531 69.2644043 C14.048826 73.17609633 13.52445927 77.08804969 13 81 C5.08 81 -2.84 81 -11 81 C-9.97088784 70.8803971 -8.71787728 60.85846123 -7.125 50.8125 C-5.30159705 39.3094421 -3.75791504 27.78435115 -2.30712891 16.22973633 C-2.15034668 14.98345459 -1.99356445 13.73717285 -1.83203125 12.453125 C-1.69514893 11.35129883 -1.5582666 10.24947266 -1.41723633 9.11425781 C-1.00896165 6.06688991 -0.50546044 3.03276262 0 0 Z " fill="#914EE0" transform="translate(514,435)"/>
<path d="M0 0 C4.5478125 0.928125 4.5478125 0.928125 9.1875 1.875 C10.13391357 2.06562012 11.08032715 2.25624023 12.05541992 2.45263672 C12.81443604 2.61006348 13.57345215 2.76749023 14.35546875 2.9296875 C15.51018677 3.16534424 15.51018677 3.16534424 16.68823242 3.40576172 C19 4 19 4 21.43334961 4.99731445 C24.19921334 6.07782452 26.785981 6.6125978 29.7109375 7.11328125 C31.33128906 7.4081543 31.33128906 7.4081543 32.984375 7.70898438 C35.23521952 8.10962433 37.48785382 8.5003425 39.7421875 8.88085938 C47.3228587 10.28418601 52.96292199 11.77345185 57.66064453 18.31103516 C59.17967192 21.36071937 59.3608794 23.28042946 59.328125 26.66796875 C59.32296875 27.72564453 59.3178125 28.78332031 59.3125 29.87304688 C59.291875 30.96681641 59.27125 32.06058594 59.25 33.1875 C59.24484375 34.29287109 59.2396875 35.39824219 59.234375 36.53710938 C59.1545832 44.69083359 59.1545832 44.69083359 58 47 C56.6875 46.5625 55.375 46.125 54.0625 45.6875 C53.23234375 45.41292969 52.4021875 45.13835937 51.546875 44.85546875 C49.98935741 44.33231484 48.43598427 43.79632765 46.890625 43.23828125 C31.55827 37.79126039 16.13060242 37.08091666 0 36 C0 24.12 0 12.24 0 0 Z " fill="#AB3AED" transform="translate(298,383)"/>
<path d="M0 0 C0 11.22 0 22.44 0 34 C-17.49702036 37.35942791 -26.93368702 38.25425254 -43 30 C-43 24.39 -43 18.78 -43 13 C-43.66 13 -44.32 13 -45 13 C-45 17.95 -45 22.9 -45 28 C-49.50866577 27.35590489 -53.5352146 26.72258114 -57.875 25.5625 C-58.82117188 25.31628906 -59.76734375 25.07007813 -60.7421875 24.81640625 C-63 24 -63 24 -64 22 C-66.08675006 21.604674 -66.08675006 21.604674 -68.5625 21.5 C-73.24841039 21.12917256 -77.47573904 20.25673915 -82 19 C-82 18.34 -82 17.68 -82 17 C-62.68643181 12.7049325 -43.34385237 8.58786601 -23.95092773 4.66601562 C-23.14759506 4.50293411 -22.34426239 4.3398526 -21.5165863 4.17182922 C-20.02306795 3.86876943 -18.52924738 3.56719305 -17.03504944 3.26750183 C-13.55506105 2.56092842 -10.11344192 1.78537598 -6.67578125 0.89379883 C-3 0 -3 0 0 0 Z " fill="#7F4BDB" transform="translate(290,384)"/>
<path d="M0 0 C4.12618471 1.36415254 8.19635743 2.80745842 12.25 4.375 C13.96509766 5.03435547 13.96509766 5.03435547 15.71484375 5.70703125 C17.65478014 6.47054961 19.58799913 7.25226172 21.50390625 8.07421875 C29.12712931 11.33762896 36.94358765 13.08830893 45 15 C45 24.9 45 34.8 45 45 C38.9981495 44.33312772 33.34460325 43.57912605 27.5 42.25 C26.35736694 41.99319458 26.35736694 41.99319458 25.19165039 41.73120117 C19.55540387 40.43177667 13.98821087 38.93738758 8.4375 37.3125 C7.7053125 37.09819336 6.973125 36.88388672 6.21875 36.66308594 C1.13295459 35.13295459 1.13295459 35.13295459 0 34 C-0.08847743 31.47905924 -0.11527301 28.98569107 -0.09765625 26.46484375 C-0.0962413 25.71159317 -0.09482635 24.95834259 -0.09336853 24.18226624 C-0.08775376 21.7673044 -0.07519883 19.35243399 -0.0625 16.9375 C-0.0574869 15.30403779 -0.05292366 13.67057414 -0.04882812 12.03710938 C-0.03777954 8.02470415 -0.02050506 4.01236759 0 0 Z " fill="#974FDC" transform="translate(298,341)"/>
<path d="M0 0 C2.52652557 1.50895095 4.91718819 3.11086252 7.30078125 4.8359375 C8.37972656 5.58423828 8.37972656 5.58423828 9.48046875 6.34765625 C11.10468897 7.485915 12.70580896 8.65704494 14.30078125 9.8359375 C12.02406069 12.24201718 10.65674807 13.41644165 7.30078125 13.8359375 C6.31078125 13.5059375 5.32078125 13.1759375 4.30078125 12.8359375 C2.2349101 12.92166977 0.171316 13.07427285 -1.88671875 13.2734375 C-2.97339844 13.37527344 -4.06007813 13.47710938 -5.1796875 13.58203125 C-6.01113281 13.66582031 -6.84257812 13.74960937 -7.69921875 13.8359375 C-7.69921875 14.4959375 -7.69921875 15.1559375 -7.69921875 15.8359375 C-12.46229312 16.78855237 -16.86587155 16.91927107 -21.69921875 16.8359375 C-21.64701172 17.68865234 -21.64701172 17.68865234 -21.59375 18.55859375 C-21.39770091 24.15066058 -21.90386497 27.94406838 -24.69921875 32.8359375 C-26.3203125 34.234375 -26.3203125 34.234375 -28.69921875 34.8359375 C-31.49152434 33.87065847 -33.89511444 32.84683827 -36.51171875 31.5234375 C-37.26364502 31.15460449 -38.01557129 30.78577148 -38.7902832 30.40576172 C-51.4744797 24.07366152 -63.49875117 16.53398937 -74.69921875 7.8359375 C-74.69921875 7.5059375 -74.69921875 7.1759375 -74.69921875 6.8359375 C-73.90153076 6.80153564 -73.10384277 6.76713379 -72.28198242 6.73168945 C-52.56056963 5.82225131 -16.95163313 -7.31054511 0 0 Z " fill="#675DED" transform="translate(197.69921875,535.1640625)"/>
<path d="M0 0 C1.52657227 0.02707031 1.52657227 0.02707031 3.08398438 0.0546875 C5.57781655 0.10152003 8.06965047 0.16708573 10.5625 0.25 C9.96167836 8.7959104 9.06416022 17.27992322 7.7902832 25.75292969 C7.59497047 27.09662871 7.41422271 28.44251698 7.24731445 29.79003906 C5.84440968 41.04033425 5.84440968 41.04033425 2.69970703 44.0078125 C0.64478785 45.05385056 -1.20021166 45.71609205 -3.4375 46.25 C-4.9225 46.745 -4.9225 46.745 -6.4375 47.25 C-16.82559125 48.1526689 -16.82559125 48.1526689 -21.5625 45.5 C-26.51614177 39.55562988 -25.94677716 33.71678672 -25.4375 26.25 C-23.27068412 10.29148016 -23.27068412 10.29148016 -18.4375 4.25 C-12.3713643 -0.22873571 -7.38393332 -0.24981427 0 0 Z " fill="#212433" transform="translate(592.4375,450.75)"/>
<path d="M0 0 C-0.66 0.33 -1.32 0.66 -2 1 C-2 9.25 -2 17.5 -2 26 C-8.23543298 28.07847766 -14.49696498 29.64310406 -20.88549805 31.14160156 C-22.93011466 31.6232602 -24.9718153 32.11616581 -27.01367188 32.609375 C-28.33056481 32.91996853 -29.64761722 33.22988681 -30.96484375 33.5390625 C-32.73782837 33.95986084 -32.73782837 33.95986084 -34.54663086 34.38916016 C-38 35 -38 35 -45 35 C-45 26.75 -45 18.5 -45 10 C-23.15802718 2.67237041 -23.15802718 2.67237041 -13.3984375 -0.2734375 C-7.7891735 -1.9726608 -5.64641319 -1.57359056 0 0 Z " fill="#7F56E2" transform="translate(246,359)"/>
<path d="M0 0 C51.08473664 -0.39294238 51.08473664 -0.39294238 75.125 0.9375 C76.31284592 1.00284943 76.31284592 1.00284943 77.52468872 1.06951904 C86.03119279 1.54897553 94.52130616 2.15167391 103 3 C103 4.32 103 5.64 103 7 C101.10386831 7.27087596 99.20773574 7.54174583 97.31159973 7.81259155 C95.60788111 8.05600503 93.90417671 8.299518 92.20048523 8.54312134 C87.45177013 9.22196302 82.70280778 9.8989918 77.95336914 10.57275391 C69.48785561 11.77531209 61.0241292 12.98081324 52.57421875 14.2890625 C18.03418047 19.59058869 18.03418047 19.59058869 9 13 C6.6015625 10.78125 6.6015625 10.78125 4.625 8.5 C3.95726563 7.7471875 3.28953125 6.994375 2.6015625 6.21875 C1.01536669 4.02128849 0.55791851 2.59680754 0 0 Z " fill="#7F54DA" transform="translate(114,432)"/>
<path d="M0 0 C1.09828769 3.54188278 1.11445011 6.8209762 1.09765625 10.515625 C1.09443359 11.76601563 1.09121094 13.01640625 1.08789062 14.3046875 C1.07951172 15.60664063 1.07113281 16.90859375 1.0625 18.25 C1.05798828 19.56742187 1.05347656 20.88484375 1.04882812 22.2421875 C1.03704316 25.49483741 1.02059011 28.74739584 1 32 C-6.20714894 33.64734833 -12.54321034 35 -20 35 C-20 26.75 -20 18.5 -20 10 C-22.97 9.505 -22.97 9.505 -26 9 C-21.93115841 6.28743894 -17.60140611 4.96929 -13 3.375 C-12.08476562 3.05015625 -11.16953125 2.7253125 -10.2265625 2.390625 C-9.34742188 2.08382813 -8.46828125 1.77703125 -7.5625 1.4609375 C-6.35787109 1.04013916 -6.35787109 1.04013916 -5.12890625 0.61083984 C-3 0 -3 0 0 0 Z " fill="#965AE1" transform="translate(266,349)"/>
<path d="M0 0 C0 11.22 0 22.44 0 34 C-5 35 -5 35 -20 35 C-20 24.77 -20 14.54 -20 4 C-17.256875 3.34 -14.51375 2.68 -11.6875 2 C-10.82729248 1.79117187 -9.96708496 1.58234375 -9.08081055 1.3671875 C-8.39801025 1.20476562 -7.71520996 1.04234375 -7.01171875 0.875 C-6.31522217 0.70742188 -5.61872559 0.53984375 -4.90112305 0.3671875 C-3 0 -3 0 0 0 Z " fill="#9D46ED" transform="translate(290,384)"/>
<path d="M0 0 C0.33 0.66 0.66 1.32 1 2 C1.99 1.67 2.98 1.34 4 1 C3.99476318 1.65597168 3.98952637 2.31194336 3.98413086 2.98779297 C3.96338728 5.95018563 3.95034824 8.91256303 3.9375 11.875 C3.92912109 12.90753906 3.92074219 13.94007813 3.91210938 15.00390625 C3.90888672 15.99003906 3.90566406 16.97617187 3.90234375 17.9921875 C3.89710693 18.90339355 3.89187012 19.81459961 3.88647461 20.75341797 C3.85114435 23.03687509 3.85114435 23.03687509 5 25 C2.31466436 25.67662 -0.372725 26.34146121 -3.0625 27 C-3.81466797 27.19078125 -4.56683594 27.3815625 -5.34179688 27.578125 C-6.45844727 27.84882813 -6.45844727 27.84882813 -7.59765625 28.125 C-8.27320557 28.29257812 -8.94875488 28.46015625 -9.64477539 28.6328125 C-12.72833534 29.11354995 -15.87919074 29 -19 29 C-19 20.75 -19 12.5 -19 4 C-16.793125 3.154375 -14.58625 2.30875 -12.3125 1.4375 C-11.28443237 1.03229126 -11.28443237 1.03229126 -10.2355957 0.61889648 C-6.45972289 -0.77687971 -3.82792262 -1.41327755 0 0 Z " fill="#6058D7" transform="translate(220,365)"/>
<path d="M0 0 C-5.84010697 4.48990263 -12.45989705 7.65604492 -19 11 C-19.7420166 11.37979004 -20.4840332 11.75958008 -21.24853516 12.15087891 C-23.49027774 13.28596895 -25.7424525 14.39672472 -28 15.5 C-28.69311279 15.85022217 -29.38622559 16.20044434 -30.1003418 16.5612793 C-34.55617182 18.69597273 -37.9613522 19.53857281 -43 19 C-49.0452763 16.84505924 -53.39506906 13.23296427 -57 8 C-57 7.34 -57 6.68 -57 6 C-45.64069557 4.31581291 -34.27085174 2.73022732 -22.875 1.3125 C-21.34951538 1.11563599 -21.34951538 1.11563599 -19.79321289 0.91479492 C-13.16286693 0.10719376 -6.67708906 -0.15491896 0 0 Z " fill="#6058E5" transform="translate(199,450)"/>
<path d="M0 0 C2.10717773 -0.37231445 2.10717773 -0.37231445 4.68359375 -0.36328125 C5.61107422 -0.36263672 6.53855469 -0.36199219 7.49414062 -0.36132812 C8.46544922 -0.34521484 9.43675781 -0.32910156 10.4375 -0.3125 C11.40494141 -0.31572266 12.37238281 -0.31894531 13.36914062 -0.32226562 C20.59939069 -0.26707288 20.59939069 -0.26707288 24 2 C24.64351991 8.04908711 23.39532626 14.11314907 22 20 C19.58183834 22.41816166 13.31222181 21.18547019 10.0625 21.1875 C9.03447266 21.19974609 8.00644531 21.21199219 6.94726562 21.22460938 C5.47483398 21.22750977 5.47483398 21.22750977 3.97265625 21.23046875 C2.61539429 21.23663208 2.61539429 21.23663208 1.23071289 21.24291992 C-1 21 -1 21 -3 19 C-3.03525767 16.29984982 -2.95290782 13.74513018 -2.75 11.0625 C-2.71003906 10.33353516 -2.67007813 9.60457031 -2.62890625 8.85351562 C-2.37696562 5.13909356 -2.10258851 3.15388277 0 0 Z " fill="#AE51E2" transform="translate(519,400)"/>
<path d="M0 0 C0.763125 -0.00322266 1.52625 -0.00644531 2.3125 -0.00976562 C6.17050768 0.02746076 8.09924794 0.12866529 11.375 2.3125 C11.88645222 6.76944077 11.98708229 9.16484571 9.875 13.125 C2.31402912 19.74084952 -9.94125991 20.54957838 -19.625 20.3125 C-17.76265512 6.54094971 -17.76265512 6.54094971 -11.52734375 1.67578125 C-7.59854086 -0.16964568 -4.28222482 -0.09134439 0 0 Z " fill="#212433" transform="translate(679.625,450.6875)"/>
<path d="M0 0 C-0.65226562 0.03738281 -1.30453125 0.07476563 -1.9765625 0.11328125 C-7.45358004 0.5252693 -11.0807547 1.48804495 -16 4 C-18.98958258 4.52873609 -21.97173369 4.80484506 -25 5 C-25.95020416 7.239835 -25.95020416 7.239835 -26 10 C-15.08790678 22.47096368 3.5812733 29.11196451 19 34 C19 34.33 19 34.66 19 35 C17.20779424 34.88298313 15.41624915 34.75584692 13.625 34.625 C12.12839844 34.52058594 12.12839844 34.52058594 10.6015625 34.4140625 C2.52941081 33.48602771 -5.18356547 31.50442626 -12.9375 29.125 C-13.80342773 28.86251465 -14.66935547 28.6000293 -15.56152344 28.32958984 C-21.78468338 26.42347023 -27.93428747 24.3650714 -34 22 C-33.69191406 21.39542969 -33.38382813 20.79085937 -33.06640625 20.16796875 C-30.29528933 14.53437942 -29.56174316 9.17917478 -29 3 C-24.38 2.67 -19.76 2.34 -15 2 C-15 1.34 -15 0.68 -15 0 C-13.06544546 -0.38991022 -11.12718172 -0.76145349 -9.1875 -1.125 C-8.10855469 -1.33382812 -7.02960938 -1.54265625 -5.91796875 -1.7578125 C-3 -2 -3 -2 0 0 Z " fill="#9A72F1" transform="translate(205,549)"/>
<path d="M0 0 C1.2062252 3.61867559 1.10816918 6.92506251 1.0625 10.6875 C1.05798828 11.38939453 1.05347656 12.09128906 1.04882812 12.81445312 C1.03706927 14.54300538 1.01913454 16.27151365 1 18 C-3.37957996 17.4266136 -7.60736301 16.70329493 -11.875 15.5625 C-13.29425781 15.19318359 -13.29425781 15.19318359 -14.7421875 14.81640625 C-17 14 -17 14 -18 12 C-20.08675006 11.604674 -20.08675006 11.604674 -22.5625 11.5 C-27.24841039 11.12917256 -31.47573904 10.25673915 -36 9 C-36 8.34 -36 7.68 -36 7 C-31.51713009 5.99771376 -27.03307874 5.00096165 -22.54785156 4.00927734 C-21.02277592 3.67127184 -19.4980318 3.33176687 -17.97363281 2.99072266 C-15.78015587 2.50026464 -13.58553618 2.01524351 -11.390625 1.53125 C-10.7113092 1.37813354 -10.03199341 1.22501709 -9.33209229 1.06726074 C-6.09927826 0.35974903 -3.33549386 0 0 0 Z " fill="#7151E2" transform="translate(244,394)"/>
<path d="M0 0 C-30.62298664 13.40112078 -30.62298664 13.40112078 -45 13 C-44.67 12.34 -44.34 11.68 -44 11 C-41.49609375 10.5859375 -41.49609375 10.5859375 -38.4375 10.375 C-37.42558594 10.30023437 -36.41367187 10.22546875 -35.37109375 10.1484375 C-34.58863281 10.09945312 -33.80617188 10.05046875 -33 10 C-33 9.34 -33 8.68 -33 8 C-42.24 8 -51.48 8 -61 8 C-61 7.67 -61 7.34 -61 7 C-60.41323486 6.98541748 -59.82646973 6.97083496 -59.22192383 6.95581055 C-40.66216658 6.44591721 -22.58107704 5.05396422 -4.73828125 -0.328125 C-2 -1 -2 -1 0 0 Z " fill="#D881E6" transform="translate(348,569)"/>
<path d="M0 0 C3.44715813 1.33692064 6.80517612 2.82158832 10.16601562 4.36108398 C19.86371029 8.76154588 29.80081533 11.97350281 40 15 C40 15.99 40 16.98 40 18 C31.39396804 20.46551186 22.32194935 13.74307363 14.6875 10 C14.03031982 9.68039307 13.37313965 9.36078613 12.69604492 9.03149414 C8.12458341 6.74143599 4.06263239 4.11135624 0 1 C0 0.67 0 0.34 0 0 Z " fill="#282A3C" transform="translate(183,563)"/>
<path d="M0 0 C1.65 0.66 3.3 1.32 5 2 C5 2.33 5 2.66 5 3 C-3.28667282 3.02354199 -11.57333085 3.04112205 -19.86002922 3.05181217 C-23.71106044 3.05695208 -27.56206821 3.06387984 -31.41308594 3.07543945 C-50.30360568 3.13068052 -69.12675613 2.93684562 -88 2 C-88 1.67 -88 1.34 -88 1 C-58.65701421 0.80367534 -29.33536999 1.37312525 0 2 C0 1.34 0 0.68 0 0 Z " fill="#5449B1" transform="translate(242,424)"/>
<path d="M0 0 C-0.33 2.64 -0.66 5.28 -1 8 C-7.2054142 7.51679152 -12.99945246 6.66681876 -19 5 C-19 4.34 -19 3.68 -19 3 C-16.96040523 2.49161436 -14.91820862 1.99366114 -12.875 1.5 C-11.73804688 1.2215625 -10.60109375 0.943125 -9.4296875 0.65625 C-6.18533302 0.03546235 -3.29185543 -0.12006768 0 0 Z " fill="#6151D2" transform="translate(227,398)"/>
<path d="M0 0 C-3.4352048 2.29013653 -4.985331 2.17842973 -9 2 C-9 2.66 -9 3.32 -9 4 C-4.71 4.33 -0.42 4.66 4 5 C3.67 5.66 3.34 6.32 3 7 C-2.21346429 7.20259576 -6.75983354 6.53504703 -11.75 5.125 C-12.40871094 4.95097656 -13.06742188 4.77695312 -13.74609375 4.59765625 C-16.93246798 3.7251197 -19.22437754 2.85041497 -22 1 C-14.64206267 0.08839714 -7.41017023 -0.11459026 0 0 Z " fill="#1DABE4" transform="translate(112,515)"/>
<path d="M0 0 C4.93078644 0.51903015 9.05249433 2.12849085 13.5859375 4.01171875 C16.35046414 5.1434748 19.15199793 6.10063093 22 7 C22 7.33 22 7.66 22 8 C13.10428684 7.41918024 4.6349727 6.19799305 -4 4 C-4 3.34 -4 2.68 -4 2 C-2.68 2 -1.36 2 0 2 C0 1.34 0 0.68 0 0 Z " fill="#9D72E1" transform="translate(202,576)"/>
<path d="M0 0 C-7.2271408 3.14169523 -14.39162534 5.92957946 -22 8 C-22 7.34 -22 6.68 -22 6 C-25.3 6 -28.6 6 -32 6 C-32 5.67 -32 5.34 -32 5 C-31.09121094 4.90203125 -30.18242187 4.8040625 -29.24609375 4.703125 C-20.8671352 3.70624378 -13.04231641 2.10028792 -4.94921875 -0.29296875 C-2 -1 -2 -1 0 0 Z " fill="#AA65B9" transform="translate(348,569)"/>
<path d="M0 0 C0.33 0.66 0.66 1.32 1 2 C1.66 2 2.32 2 3 2 C3 1.34 3 0.68 3 0 C3.66 0.33 4.32 0.66 5 1 C4.83701416 1.57975586 4.67402832 2.15951172 4.50610352 2.75683594 C3.72322444 6.22673123 3.89687641 9.712623 3.9375 13.25 C3.94201172 13.99507812 3.94652344 14.74015625 3.95117188 15.5078125 C3.96290754 17.3385764 3.9808415 19.16929873 4 21 C0.78622285 17.78622285 0.05315582 14.96637288 -0.1953125 10.44921875 C-0.17210937 9.20785156 -0.14890625 7.96648437 -0.125 6.6875 C-0.10695313 5.43324219 -0.08890625 4.17898438 -0.0703125 2.88671875 C-0.03550781 1.45779297 -0.03550781 1.45779297 0 0 Z " fill="#28E3EE" transform="translate(309,499)"/>
<path d="M0 0 C0.66 0 1.32 0 2 0 C1.98839844 0.92683594 1.97679687 1.85367187 1.96484375 2.80859375 C1.95582031 4.00613281 1.94679688 5.20367187 1.9375 6.4375 C1.92589844 7.63246094 1.91429687 8.82742188 1.90234375 10.05859375 C1.66098208 12.88873341 1.66098208 12.88873341 3 14 C3.07244053 16.01964199 3.08377188 18.04167124 3.0625 20.0625 C3.05347656 21.16722656 3.04445313 22.27195312 3.03515625 23.41015625 C3.02355469 24.26480469 3.01195312 25.11945313 3 26 C2.34 26.33 1.68 26.66 1 27 C0.04623433 23.79217914 -0.11621181 20.91812604 -0.09765625 17.578125 C-0.09443359 16.55332031 -0.09121094 15.52851563 -0.08789062 14.47265625 C-0.07951172 13.40917969 -0.07113281 12.34570312 -0.0625 11.25 C-0.05798828 10.17105469 -0.05347656 9.09210938 -0.04882812 7.98046875 C-0.03705727 5.32025617 -0.02061399 2.66015635 0 0 Z " fill="#B55BE2" transform="translate(299,342)"/>
<path d="M0 0 C5.445 1.485 5.445 1.485 11 3 C11 3.99 11 4.98 11 6 C6.84773144 7.18956883 4.61274007 6.78960563 0.6875 5.0625 C-0.19550781 4.68222656 -1.07851562 4.30195312 -1.98828125 3.91015625 C-2.65214844 3.60980469 -3.31601563 3.30945313 -4 3 C-2.68 2.67 -1.36 2.34 0 2 C0 1.34 0 0.68 0 0 Z " fill="#33304A" transform="translate(212,575)"/>
<path d="M0 0 C0.66 0 1.32 0 2 0 C2 8.91 2 17.82 2 27 C4.97 27 7.94 27 11 27 C11 27.33 11 27.66 11 28 C7.37 28.33 3.74 28.66 0 29 C0 19.43 0 9.86 0 0 Z " fill="#6644B1" transform="translate(268,392)"/>
<path d="M0 0 C3.78716158 1.50362259 7.55245187 3.05487001 11.3125 4.625 C12.38113281 5.07101562 13.44976562 5.51703125 14.55078125 5.9765625 C15.76314453 6.48316406 15.76314453 6.48316406 17 7 C16.67 7.99 16.34 8.98 16 10 C12.35524815 8.63649571 9.08755513 6.998536 5.75 5 C4.44289062 4.2265625 4.44289062 4.2265625 3.109375 3.4375 C1 2 1 2 0 0 Z " fill="#443669" transform="translate(183,563)"/>
<path d="M0 0 C-0.65226562 0.03738281 -1.30453125 0.07476563 -1.9765625 0.11328125 C-7.4410517 0.5243269 -11.08602086 1.48587114 -16 4 C-18.875 3.6875 -18.875 3.6875 -21 3 C-21 2.67 -21 2.34 -21 2 C-19.02 2 -17.04 2 -15 2 C-15 1.34 -15 0.68 -15 0 C-13.06544546 -0.38991022 -11.12718172 -0.76145349 -9.1875 -1.125 C-8.10855469 -1.33382812 -7.02960938 -1.54265625 -5.91796875 -1.7578125 C-3 -2 -3 -2 0 0 Z " fill="#8E66F8" transform="translate(205,549)"/>
<path d="M0 0 C0 0.66 0 1.32 0 2 C-1.38644937 2.94684347 -2.77874917 3.88625246 -4.19921875 4.78125 C-7.353287 6.91589055 -10.15540241 9.47520924 -13 12 C-12.45550236 8.20527027 -10.96207612 6.72968732 -8.0625 4.3125 C-7.35222656 3.71050781 -6.64195312 3.10851562 -5.91015625 2.48828125 C-3.80554985 0.84849589 -2.68917384 0 0 0 Z " fill="#74C2D0" transform="translate(758,401)"/>
<path d="M0 0 C-2.40804568 2.40804568 -4.42203775 3.00768759 -7.625 4.125 C-8.62789063 4.47820312 -9.63078125 4.83140625 -10.6640625 5.1953125 C-11.82035156 5.59363281 -11.82035156 5.59363281 -13 6 C-13 5.34 -13 4.68 -13 4 C-14.32 3.67 -15.64 3.34 -17 3 C-15.10614563 2.49255577 -13.20981334 1.99435426 -11.3125 1.5 C-9.72888672 1.08234375 -9.72888672 1.08234375 -8.11328125 0.65625 C-5.28857328 0.0608285 -2.87163292 -0.12786492 0 0 Z " fill="#325559" transform="translate(290,446)"/>
<path d="M0 0 C2.14729141 0.28073073 4.29283193 0.57488499 6.4375 0.875 C7.63246094 1.03742187 8.82742188 1.19984375 10.05859375 1.3671875 C11.51458984 1.68042969 11.51458984 1.68042969 13 2 C13.33 2.66 13.66 3.32 14 4 C4.58997722 4.3690205 4.58997722 4.3690205 0 2 C0 1.34 0 0.68 0 0 Z " fill="#1C8EE0" transform="translate(320,548)"/>
<path d="M0 0 C-5.76240474 3.84160316 -11.29157865 4.23538321 -18 4 C-15.24892076 1.24892076 -12.78437017 1.10737283 -9 0.3125 C-7.1128125 -0.09548828 -7.1128125 -0.09548828 -5.1875 -0.51171875 C-2 -1 -2 -1 0 0 Z " fill="#1F95E9" transform="translate(364,548)"/>
<path d="M0 0 C0 0.99 0 1.98 0 3 C-0.99 3.33 -1.98 3.66 -3 4 C-3 3.34 -3 2.68 -3 2 C-3.99 2.33 -4.98 2.66 -6 3 C-7.72795352 3.06802967 -9.45835365 3.08495645 -11.1875 3.0625 C-12.53908203 3.04896484 -12.53908203 3.04896484 -13.91796875 3.03515625 C-14.60503906 3.02355469 -15.29210937 3.01195312 -16 3 C-16 2.67 -16 2.34 -16 2 C-14.27192682 1.66104344 -12.54248026 1.32908475 -10.8125 1 C-9.84957031 0.814375 -8.88664062 0.62875 -7.89453125 0.4375 C-5.2065794 0.03122388 -2.71228981 -0.07933572 0 0 Z " fill="#9150C5" transform="translate(270,389)"/>
<path d="M0 0 C0.33 0 0.66 0 1 0 C1.06058594 0.74765625 1.12117188 1.4953125 1.18359375 2.265625 C1.26738281 3.25046875 1.35117187 4.2353125 1.4375 5.25 C1.51871094 6.22453125 1.59992188 7.1990625 1.68359375 8.203125 C1.92725955 10.90764026 1.92725955 10.90764026 2.53125 13.125 C3.26681687 16.06726747 3.05798717 18.98466702 3 22 C-0.30171338 17.04742993 -0.11722879 12.54348007 -0.0625 6.6875 C-0.05347656 5.43324219 -0.04445313 4.17898438 -0.03515625 2.88671875 C-0.01775391 1.45779297 -0.01775391 1.45779297 0 0 Z " fill="#11B1D7" transform="translate(269,506)"/>
<path d="M0 0 C0.66 0.33 1.32 0.66 2 1 C0.92492371 2.29854721 -0.16043736 3.58858361 -1.25 4.875 C-1.85328125 5.59429687 -2.4565625 6.31359375 -3.078125 7.0546875 C-4.97087634 8.97052118 -6.53657727 9.96449045 -9 11 C-6.36113346 6.7973607 -3.63559661 3.43361902 0 0 Z " fill="#56CCCE" transform="translate(288,471)"/>
<path d="M0 0 C1.95803507 -0.05389087 3.91648909 -0.09274217 5.875 -0.125 C7.51082031 -0.15980469 7.51082031 -0.15980469 9.1796875 -0.1953125 C12 0 12 0 14 2 C8.65370398 3.0024305 4.37625234 2.84888195 -1 2 C-0.67 1.34 -0.34 0.68 0 0 Z " fill="#67DCD5" transform="translate(337,470)"/>
<path d="M0 0 C3.63 0 7.26 0 11 0 C9 2 9 2 6.375 2.125 C5.59125 2.08375 4.8075 2.0425 4 2 C4.66 3.98 5.32 5.96 6 8 C1.125 3.375 1.125 3.375 0 0 Z " fill="#E889E8" transform="translate(75,398)"/>
<path d="M0 0 C0.33 0 0.66 0 1 0 C1.2358396 5.77807024 0.86783046 10.51324804 -1 16 C-1.33 16 -1.66 16 -2 16 C-2.2358396 10.22192976 -1.86783046 5.48675196 0 0 Z " fill="#2CCBE1" transform="translate(272,493)"/>
<path d="M0 0 C3.63 0 7.26 0 11 0 C7.43688534 2.672336 5.15414253 3.77263971 1 5 C1.33 4.01 1.66 3.02 2 2 C1.34 1.34 0.68 0.68 0 0 Z " fill="#5455DE" transform="translate(188,450)"/>
<path d="M0 0 C0.66 0.33 1.32 0.66 2 1 C-0.31 3.31 -2.62 5.62 -5 8 C-5.33 7.01 -5.66 6.02 -6 5 C-6.66 4.67 -7.32 4.34 -8 4 C-6.71349294 3.30289269 -5.42059335 2.61757124 -4.125 1.9375 C-3.40570313 1.55464844 -2.68640625 1.17179688 -1.9453125 0.77734375 C-1.30335938 0.52082031 -0.66140625 0.26429688 0 0 Z " fill="#129BDA" transform="translate(390,534)"/>
<path d="M0 0 C1.3357457 3.77371512 0.72408671 6.85831347 0.0625 10.75 C-0.13214844 11.92046875 -0.32679688 13.0909375 -0.52734375 14.296875 C-0.68332031 15.18890625 -0.83929687 16.0809375 -1 17 C-1.33 17 -1.66 17 -2 17 C-3.5197276 10.6447755 -2.1663492 6.08291273 0 0 Z " fill="#7655B8" transform="translate(626,450)"/>
<path d="M0 0 C-9.41002278 4.22323462 -9.41002278 4.22323462 -14 6 C-13 3 -13 3 -11.07421875 1.796875 C-10.28660156 1.45140625 -9.49898437 1.1059375 -8.6875 0.75 C-7.90761719 0.39421875 -7.12773437 0.0384375 -6.32421875 -0.328125 C-3.75392773 -1.0711335 -2.48616571 -0.88750996 0 0 Z " fill="#71D8D1" transform="translate(247,446)"/>
<path d="M0 0 C4.95 0 9.9 0 15 0 C15 0.33 15 0.66 15 1 C9.06 1.495 9.06 1.495 3 2 C2.34 3.98 1.68 5.96 1 8 C0.67 8 0.34 8 0 8 C0 5.36 0 2.72 0 0 Z " fill="#AC68D7" transform="translate(610,400)"/>
<path d="M0 0 C0.33 0 0.66 0 1 0 C1.33 4.29 1.66 8.58 2 13 C-0.26969744 10.73030256 -0.99131829 9.02604513 -2 6 C-2 4.68 -2 3.36 -2 2 C-1.34 2 -0.68 2 0 2 C0 1.34 0 0.68 0 0 Z " fill="#10CAE1" transform="translate(311,507)"/>
<path d="M0 0 C6.625 0.75 6.625 0.75 10 3 C7.36 3 4.72 3 2 3 C1.67 5.64 1.34 8.28 1 11 C0.67 11 0.34 11 0 11 C0 7.37 0 3.74 0 0 Z " fill="#C65FEA" transform="translate(299,384)"/>
<path d="M0 0 C0 0.99 0 1.98 0 3 C-3.28696233 3.79953138 -4.71023192 4.09658936 -8 3 C-8 2.34 -8 1.68 -8 1 C-5.07175348 0.02391783 -3.04386724 -0.08226668 0 0 Z " fill="#2A283C" transform="translate(223,578)"/>
<path d="M0 0 C2.97 0.495 2.97 0.495 6 1 C4.02 1.99 4.02 1.99 2 3 C2.66 3.66 3.32 4.32 4 5 C1.36 4.67 -1.28 4.34 -4 4 C-4 3.34 -4 2.68 -4 2 C-2.68 2 -1.36 2 0 2 C0 1.34 0 0.68 0 0 Z " fill="#936DDD" transform="translate(202,576)"/>
<path d="M0 0 C0.99 0.33 1.98 0.66 3 1 C1.3990869 2.15037471 -0.20585225 3.29514816 -1.8125 4.4375 C-3.15248047 5.39462891 -3.15248047 5.39462891 -4.51953125 6.37109375 C-7 8 -7 8 -10 9 C-10 8.34 -10 7.68 -10 7 C-7.91796875 5.23828125 -7.91796875 5.23828125 -5.1875 3.3125 C-4.29417969 2.66925781 -3.40085938 2.02601563 -2.48046875 1.36328125 C-1.25263672 0.68845703 -1.25263672 0.68845703 0 0 Z " fill="#11BEE3" transform="translate(197,501)"/>
<path d="M0 0 C-2.12780579 2.34058637 -4.11562221 3.70700306 -7 5 C-7.33 4.01 -7.66 3.02 -8 2 C-8.66 1.67 -9.32 1.34 -10 1 C-6.61981469 -0.04005702 -3.5219721 -0.08004482 0 0 Z " fill="#253339" transform="translate(301,462)"/>
<path d="M0 0 C2.60270823 4.59478108 1.78345241 7.9722215 0.48046875 13.0078125 C0.01034121 14.6786255 -0.4919374 16.34032884 -1 18 C-1.33 18 -1.66 18 -2 18 C-2.23268915 11.71739294 -1.40454548 6.11980533 0 0 Z " fill="#8B46C8" transform="translate(446,434)"/>
<path d="M0 0 C0.33 0.99 0.66 1.98 1 3 C-1.31 5.31 -3.62 7.62 -6 10 C-6.66 9.67 -7.32 9.34 -8 9 C-5.36 6.03 -2.72 3.06 0 0 Z " fill="#56C8CF" transform="translate(257,466)"/>
<path d="M0 0 C1.65 0 3.3 0 5 0 C4.34 1.65 3.68 3.3 3 5 C3.66 5 4.32 5 5 5 C4.67 5.99 4.34 6.98 4 8 C0 3.375 0 3.375 0 0 Z " fill="#B45ADD" transform="translate(115,433)"/>
<path d="M0 0 C1.2065625 0.0309375 1.2065625 0.0309375 2.4375 0.0625 C0.7875 1.7125 -0.8625 3.3625 -2.5625 5.0625 C-3.125 3.125 -3.125 3.125 -3.5625 1.0625 C-2.5625 0.0625 -2.5625 0.0625 0 0 Z " fill="#C363E1" transform="translate(269.5625,347.9375)"/>
<path d="M0 0 C2.625 0.9375 2.625 0.9375 5 2 C1.61981469 3.04005702 -1.4780279 3.08004482 -5 3 C-2 1 -2 1 0 0 Z " fill="#9670ED" transform="translate(211,546)"/>
<path d="M0 0 C-0.33 1.32 -0.66 2.64 -1 4 C-1.33 3.67 -1.66 3.34 -2 3 C-3.34747084 2.76924918 -4.70377565 2.58846937 -6.0625 2.4375 C-7.361875 2.293125 -8.66125 2.14875 -10 2 C-10 1.67 -10 1.34 -10 1 C-6.56484998 0.37542727 -3.50935186 0 0 0 Z " fill="#696BC4" transform="translate(708,495)"/>
</svg>
